<?xml version="1.0" encoding="UTF-8"?>
<svg xmlns="http://www.w3.org/2000/svg"
     xmlns:xlink="http://www.w3.org/1999/xlink"
     xmlns:gadfly="http://www.gadflyjl.org/ns"
     version="1.2"
     width="141.42mm" height="100mm" viewBox="0 0 141.42 100"
     stroke="none"
     fill="#000000"
     stroke-width="0.3"
     font-size="3.88"
>
<defs>
  <marker id="arrow" markerWidth="15" markerHeight="7" refX="5" refY="3.5" orient="auto" markerUnits="strokeWidth">
    <path d="M0,0 L15,3.5 L0,7 z" stroke="context-stroke" fill="context-stroke"/>
  </marker>
</defs>
<g class="plotroot" id="img-fd6a30cf-1">
  <g font-size="3.88" font-family="'PT Sans','Helvetica Neue','Helvetica',sans-serif" fill="#564A55" stroke="#000000" stroke-opacity="0.000" id="img-fd6a30cf-2">
    <g transform="translate(66.95,88.39)">
      <g class="primitive">
        <text text-anchor="middle" dy="0.6em">Point on graph</text>
      </g>
    </g>
  </g>
  <g class="guide xlabels" font-size="2.82" font-family="'PT Sans Caption','Helvetica Neue','Helvetica',sans-serif" fill="#6C606B" id="img-fd6a30cf-3">
    <g transform="translate(29.44,81.72)">
      <g class="primitive">
        <text text-anchor="middle" dy="0.6em">A</text>
      </g>
    </g>
    <g transform="translate(48.19,81.72)">
      <g class="primitive">
        <text text-anchor="middle" dy="0.6em">B</text>
      </g>
    </g>
    <g transform="translate(66.95,81.72)">
      <g class="primitive">
        <text text-anchor="middle" dy="0.6em">C</text>
      </g>
    </g>
    <g transform="translate(85.7,81.72)">
      <g class="primitive">
        <text text-anchor="middle" dy="0.6em">D</text>
      </g>
    </g>
    <g transform="translate(104.45,81.72)">
      <g class="primitive">
        <text text-anchor="middle" dy="0.6em">E</text>
      </g>
    </g>
  </g>
  <g class="guide colorkey" id="img-fd6a30cf-4">
    <g font-size="2.82" font-family="'PT Sans','Helvetica Neue','Helvetica',sans-serif" fill="#4C404B" id="img-fd6a30cf-5">
      <g transform="translate(118.14,64.96)">
        <g class="primitive">
          <text dy="0.35em">1</text>
        </g>
      </g>
      <g transform="translate(118.14,49.43)">
        <g class="primitive">
          <text dy="0.35em">100</text>
        </g>
      </g>
      <g transform="translate(118.14,41.59)">
        <g class="primitive">
          <text dy="0.35em">150</text>
        </g>
      </g>
      <g transform="translate(118.14,57.27)">
        <g class="primitive">
          <text dy="0.35em">50</text>
        </g>
      </g>
    </g>
    <g shape-rendering="crispEdges" fill-opacity="1" stroke="#000000" stroke-opacity="0.000" id="img-fd6a30cf-6">
      <g transform="translate(116.48,64.67)" fill="#004D84">
        <path d="M-0.66,-0.29 L 0.66 -0.29 0.66 0.29 -0.66 0.29 z" class="primitive"/>
      </g>
      <g transform="translate(116.48,64.08)" fill="#005B8D">
        <path d="M-0.66,-0.29 L 0.66 -0.29 0.66 0.29 -0.66 0.29 z" class="primitive"/>
      </g>
      <g transform="translate(116.48,63.5)" fill="#006995">
        <path d="M-0.66,-0.29 L 0.66 -0.29 0.66 0.29 -0.66 0.29 z" class="primitive"/>
      </g>
      <g transform="translate(116.48,62.92)" fill="#00769D">
        <path d="M-0.66,-0.29 L 0.66 -0.29 0.66 0.29 -0.66 0.29 z" class="primitive"/>
      </g>
      <g transform="translate(116.48,62.33)" fill="#0083A3">
        <path d="M-0.66,-0.29 L 0.66 -0.29 0.66 0.29 -0.66 0.29 z" class="primitive"/>
      </g>
      <g transform="translate(116.48,61.75)" fill="#278FA9">
        <path d="M-0.66,-0.29 L 0.66 -0.29 0.66 0.29 -0.66 0.29 z" class="primitive"/>
      </g>
      <g transform="translate(116.48,61.16)" fill="#409BAF">
        <path d="M-0.66,-0.29 L 0.66 -0.29 0.66 0.29 -0.66 0.29 z" class="primitive"/>
      </g>
      <g transform="translate(116.48,60.58)" fill="#55A7B5">
        <path d="M-0.66,-0.29 L 0.66 -0.29 0.66 0.29 -0.66 0.29 z" class="primitive"/>
      </g>
      <g transform="translate(116.48,59.99)" fill="#69B2BA">
        <path d="M-0.66,-0.29 L 0.66 -0.29 0.66 0.29 -0.66 0.29 z" class="primitive"/>
      </g>
      <g transform="translate(116.48,59.41)" fill="#7BBCC0">
        <path d="M-0.66,-0.29 L 0.66 -0.29 0.66 0.29 -0.66 0.29 z" class="primitive"/>
      </g>
      <g transform="translate(116.48,58.83)" fill="#8DC6C5">
        <path d="M-0.66,-0.29 L 0.66 -0.29 0.66 0.29 -0.66 0.29 z" class="primitive"/>
      </g>
      <g transform="translate(116.48,58.24)" fill="#9ED0CB">
        <path d="M-0.66,-0.29 L 0.66 -0.29 0.66 0.29 -0.66 0.29 z" class="primitive"/>
      </g>
      <g transform="translate(116.48,57.66)" fill="#A5CFC7">
        <path d="M-0.66,-0.29 L 0.66 -0.29 0.66 0.29 -0.66 0.29 z" class="primitive"/>
      </g>
      <g transform="translate(116.48,57.07)" fill="#ABCEC4">
        <path d="M-0.66,-0.29 L 0.66 -0.29 0.66 0.29 -0.66 0.29 z" class="primitive"/>
      </g>
      <g transform="translate(116.48,56.49)" fill="#B1CCC2">
        <path d="M-0.66,-0.29 L 0.66 -0.29 0.66 0.29 -0.66 0.29 z" class="primitive"/>
      </g>
      <g transform="translate(116.48,55.9)" fill="#B5CCC1">
        <path d="M-0.66,-0.29 L 0.66 -0.29 0.66 0.29 -0.66 0.29 z" class="primitive"/>
      </g>
      <g transform="translate(116.48,55.32)" fill="#B7CBBF">
        <path d="M-0.66,-0.29 L 0.66 -0.29 0.66 0.29 -0.66 0.29 z" class="primitive"/>
      </g>
      <g transform="translate(116.48,54.74)" fill="#B9CBBD">
        <path d="M-0.66,-0.29 L 0.66 -0.29 0.66 0.29 -0.66 0.29 z" class="primitive"/>
      </g>
      <g transform="translate(116.48,54.15)" fill="#BBCBBB">
        <path d="M-0.66,-0.29 L 0.66 -0.29 0.66 0.29 -0.66 0.29 z" class="primitive"/>
      </g>
      <g transform="translate(116.48,53.57)" fill="#BDCABA">
        <path d="M-0.66,-0.29 L 0.66 -0.29 0.66 0.29 -0.66 0.29 z" class="primitive"/>
      </g>
      <g transform="translate(116.48,52.98)" fill="#BFCAB8">
        <path d="M-0.66,-0.29 L 0.66 -0.29 0.66 0.29 -0.66 0.29 z" class="primitive"/>
      </g>
      <g transform="translate(116.48,52.4)" fill="#C2C9B7">
        <path d="M-0.66,-0.29 L 0.66 -0.29 0.66 0.29 -0.66 0.29 z" class="primitive"/>
      </g>
      <g transform="translate(116.48,51.81)" fill="#C4C9B6">
        <path d="M-0.66,-0.29 L 0.66 -0.29 0.66 0.29 -0.66 0.29 z" class="primitive"/>
      </g>
      <g transform="translate(116.48,51.23)" fill="#C6C8B5">
        <path d="M-0.66,-0.29 L 0.66 -0.29 0.66 0.29 -0.66 0.29 z" class="primitive"/>
      </g>
      <g transform="translate(116.48,50.65)" fill="#C9C7B4">
        <path d="M-0.66,-0.29 L 0.66 -0.29 0.66 0.29 -0.66 0.29 z" class="primitive"/>
      </g>
      <g transform="translate(116.48,50.06)" fill="#CCC7B2">
        <path d="M-0.66,-0.29 L 0.66 -0.29 0.66 0.29 -0.66 0.29 z" class="primitive"/>
      </g>
      <g transform="translate(116.48,49.48)" fill="#CFC6AE">
        <path d="M-0.66,-0.29 L 0.66 -0.29 0.66 0.29 -0.66 0.29 z" class="primitive"/>
      </g>
      <g transform="translate(116.48,48.89)" fill="#D4C5AA">
        <path d="M-0.66,-0.29 L 0.66 -0.29 0.66 0.29 -0.66 0.29 z" class="primitive"/>
      </g>
      <g transform="translate(116.48,48.31)" fill="#D8C3A6">
        <path d="M-0.66,-0.29 L 0.66 -0.29 0.66 0.29 -0.66 0.29 z" class="primitive"/>
      </g>
      <g transform="translate(116.48,47.72)" fill="#D3B79A">
        <path d="M-0.66,-0.29 L 0.66 -0.29 0.66 0.29 -0.66 0.29 z" class="primitive"/>
      </g>
      <g transform="translate(116.48,47.14)" fill="#CDAB8E">
        <path d="M-0.66,-0.29 L 0.66 -0.29 0.66 0.29 -0.66 0.29 z" class="primitive"/>
      </g>
      <g transform="translate(116.48,46.56)" fill="#C89E82">
        <path d="M-0.66,-0.29 L 0.66 -0.29 0.66 0.29 -0.66 0.29 z" class="primitive"/>
      </g>
      <g transform="translate(116.48,45.97)" fill="#C19177">
        <path d="M-0.66,-0.29 L 0.66 -0.29 0.66 0.29 -0.66 0.29 z" class="primitive"/>
      </g>
      <g transform="translate(116.48,45.39)" fill="#BA836C">
        <path d="M-0.66,-0.29 L 0.66 -0.29 0.66 0.29 -0.66 0.29 z" class="primitive"/>
      </g>
      <g transform="translate(116.48,44.8)" fill="#B27563">
        <path d="M-0.66,-0.29 L 0.66 -0.29 0.66 0.29 -0.66 0.29 z" class="primitive"/>
      </g>
      <g transform="translate(116.48,44.22)" fill="#AA665A">
        <path d="M-0.66,-0.29 L 0.66 -0.29 0.66 0.29 -0.66 0.29 z" class="primitive"/>
      </g>
      <g transform="translate(116.48,43.63)" fill="#A05752">
        <path d="M-0.66,-0.29 L 0.66 -0.29 0.66 0.29 -0.66 0.29 z" class="primitive"/>
      </g>
      <g transform="translate(116.48,43.05)" fill="#96484A">
        <path d="M-0.66,-0.29 L 0.66 -0.29 0.66 0.29 -0.66 0.29 z" class="primitive"/>
      </g>
      <g transform="translate(116.48,42.47)" fill="#8B3844">
        <path d="M-0.66,-0.29 L 0.66 -0.29 0.66 0.29 -0.66 0.29 z" class="primitive"/>
      </g>
      <g transform="translate(116.48,41.88)" fill="#7E273E">
        <path d="M-0.66,-0.29 L 0.66 -0.29 0.66 0.29 -0.66 0.29 z" class="primitive"/>
      </g>
      <g stroke="#FFFFFF" stroke-width="0.2" id="img-fd6a30cf-7">
        <g transform="translate(116.48,64.96)">
          <path fill="none" d="M-0.66,0 L 0.66 0" class="primitive"/>
        </g>
        <g transform="translate(116.48,49.43)">
          <path fill="none" d="M-0.66,0 L 0.66 0" class="primitive"/>
        </g>
        <g transform="translate(116.48,41.59)">
          <path fill="none" d="M-0.66,0 L 0.66 0" class="primitive"/>
        </g>
        <g transform="translate(116.48,57.27)">
          <path fill="none" d="M-0.66,0 L 0.66 0" class="primitive"/>
        </g>
      </g>
    </g>
    <g fill="#362A35" font-size="3.88" font-family="'PT Sans','Helvetica Neue','Helvetica',sans-serif" stroke="#000000" stroke-opacity="0.000" id="img-fd6a30cf-8">
      <g transform="translate(115.83,37.59)">
        <g class="primitive">
          <text dy="-0em">Saw TP count</text>
        </g>
      </g>
    </g>
  </g>
  <g clip-path="url(#img-fd6a30cf-9)">
    <g id="img-fd6a30cf-10">
      <g pointer-events="visible" fill="#000000" fill-opacity="0.000" stroke="#000000" stroke-opacity="0.000" class="guide background" id="img-fd6a30cf-11">
        <g transform="translate(66.95,45.66)" id="img-fd6a30cf-12">
          <path d="M-46.88,-35.05 L 46.88 -35.05 46.88 35.05 -46.88 35.05 z" class="primitive"/>
        </g>
      </g>
      <g class="guide ygridlines xfixed" stroke-dasharray="0.5,0.5" stroke-width="0.2" stroke="#D0D0E0" id="img-fd6a30cf-13">
        <g transform="translate(66.95,74.87)" id="img-fd6a30cf-14">
          <path fill="none" d="M-46.88,0 L 46.88 0" class="primitive"/>
        </g>
        <g transform="translate(66.95,69.03)" id="img-fd6a30cf-15">
          <path fill="none" d="M-46.88,0 L 46.88 0" class="primitive"/>
        </g>
        <g transform="translate(66.95,63.19)" id="img-fd6a30cf-16">
          <path fill="none" d="M-46.88,0 L 46.88 0" class="primitive"/>
        </g>
        <g transform="translate(66.95,57.35)" id="img-fd6a30cf-17">
          <path fill="none" d="M-46.88,0 L 46.88 0" class="primitive"/>
        </g>
        <g transform="translate(66.95,51.51)" id="img-fd6a30cf-18">
          <path fill="none" d="M-46.88,0 L 46.88 0" class="primitive"/>
        </g>
        <g transform="translate(66.95,45.66)" id="img-fd6a30cf-19">
          <path fill="none" d="M-46.88,0 L 46.88 0" class="primitive"/>
        </g>
        <g transform="translate(66.95,39.82)" id="img-fd6a30cf-20">
          <path fill="none" d="M-46.88,0 L 46.88 0" class="primitive"/>
        </g>
        <g transform="translate(66.95,33.98)" id="img-fd6a30cf-21">
          <path fill="none" d="M-46.88,0 L 46.88 0" class="primitive"/>
        </g>
        <g transform="translate(66.95,28.14)" id="img-fd6a30cf-22">
          <path fill="none" d="M-46.88,0 L 46.88 0" class="primitive"/>
        </g>
        <g transform="translate(66.95,22.3)" id="img-fd6a30cf-23">
          <path fill="none" d="M-46.88,0 L 46.88 0" class="primitive"/>
        </g>
        <g transform="translate(66.95,16.45)" id="img-fd6a30cf-24">
          <path fill="none" d="M-46.88,0 L 46.88 0" class="primitive"/>
        </g>
      </g>
      <g class="guide xgridlines yfixed" stroke-dasharray="0.5,0.5" stroke-width="0.2" stroke="#D0D0E0" id="img-fd6a30cf-25">
        <g transform="translate(38.82,45.66)" id="img-fd6a30cf-26">
          <path fill="none" d="M0,-35.05 L 0 35.05" class="primitive"/>
        </g>
        <g transform="translate(57.57,45.66)" id="img-fd6a30cf-27">
          <path fill="none" d="M0,-35.05 L 0 35.05" class="primitive"/>
        </g>
        <g transform="translate(76.32,45.66)" id="img-fd6a30cf-28">
          <path fill="none" d="M0,-35.05 L 0 35.05" class="primitive"/>
        </g>
        <g transform="translate(95.07,45.66)" id="img-fd6a30cf-29">
          <path fill="none" d="M0,-35.05 L 0 35.05" class="primitive"/>
        </g>
      </g>
      <g class="plotpanel" id="img-fd6a30cf-30">
        <metadata>
          <boundingbox value="20.064999999999998mm 10.611666666666665mm 93.76052290397617mm 70.10333333333334mm"/>
          <unitbox value="0.5 12.5 5.0 -12.0"/>
        </metadata>
        <g shape-rendering="crispEdges" class="geometry" stroke="#000000" stroke-opacity="0.000" id="img-fd6a30cf-31">
          <g transform="translate(29.47,77.77)" id="img-fd6a30cf-32" fill="#B8CBBE">
            <path d="M-9.4,-2.95 L 9.4 -2.95 9.4 2.95 -9.4 2.95 z" class="primitive"/>
          </g>
          <g transform="translate(48.22,77.77)" id="img-fd6a30cf-33" fill="#CAC7B3">
            <path d="M-9.4,-2.95 L 9.4 -2.95 9.4 2.95 -9.4 2.95 z" class="primitive"/>
          </g>
          <g transform="translate(66.97,77.77)" id="img-fd6a30cf-34" fill="#C0CAB8">
            <path d="M-9.4,-2.95 L 9.4 -2.95 9.4 2.95 -9.4 2.95 z" class="primitive"/>
          </g>
          <g transform="translate(29.47,71.93)" id="img-fd6a30cf-35" fill="#BE8B72">
            <path d="M-9.4,-2.95 L 9.4 -2.95 9.4 2.95 -9.4 2.95 z" class="primitive"/>
          </g>
          <g transform="translate(48.22,71.93)" id="img-fd6a30cf-36" fill="#B6CBBF">
            <path d="M-9.4,-2.95 L 9.4 -2.95 9.4 2.95 -9.4 2.95 z" class="primitive"/>
          </g>
          <g transform="translate(66.97,71.93)" id="img-fd6a30cf-37" fill="#BFCAB8">
            <path d="M-9.4,-2.95 L 9.4 -2.95 9.4 2.95 -9.4 2.95 z" class="primitive"/>
          </g>
          <g transform="translate(85.72,71.93)" id="img-fd6a30cf-38" fill="#C5C8B6">
            <path d="M-9.4,-2.95 L 9.4 -2.95 9.4 2.95 -9.4 2.95 z" class="primitive"/>
          </g>
          <g transform="translate(104.47,71.93)" id="img-fd6a30cf-39" fill="#D5C5A9">
            <path d="M-9.4,-2.95 L 9.4 -2.95 9.4 2.95 -9.4 2.95 z" class="primitive"/>
          </g>
          <g transform="translate(29.47,66.09)" id="img-fd6a30cf-40" fill="#C0C9B8">
            <path d="M-9.4,-2.95 L 9.4 -2.95 9.4 2.95 -9.4 2.95 z" class="primitive"/>
          </g>
          <g transform="translate(48.22,66.09)" id="img-fd6a30cf-41" fill="#C7C8B5">
            <path d="M-9.4,-2.95 L 9.4 -2.95 9.4 2.95 -9.4 2.95 z" class="primitive"/>
          </g>
          <g transform="translate(29.47,60.24)" id="img-fd6a30cf-42" fill="#B5CCC2">
            <path d="M-9.4,-2.95 L 9.4 -2.95 9.4 2.95 -9.4 2.95 z" class="primitive"/>
          </g>
          <g transform="translate(48.22,60.24)" id="img-fd6a30cf-43" fill="#C2C9B7">
            <path d="M-9.4,-2.95 L 9.4 -2.95 9.4 2.95 -9.4 2.95 z" class="primitive"/>
          </g>
          <g transform="translate(66.97,60.24)" id="img-fd6a30cf-44" fill="#A45D55">
            <path d="M-9.4,-2.95 L 9.4 -2.95 9.4 2.95 -9.4 2.95 z" class="primitive"/>
          </g>
          <g transform="translate(85.72,60.24)" id="img-fd6a30cf-45" fill="#BFCAB8">
            <path d="M-9.4,-2.95 L 9.4 -2.95 9.4 2.95 -9.4 2.95 z" class="primitive"/>
          </g>
          <g transform="translate(29.47,54.4)" id="img-fd6a30cf-46" fill="#D5C5A9">
            <path d="M-9.4,-2.95 L 9.4 -2.95 9.4 2.95 -9.4 2.95 z" class="primitive"/>
          </g>
          <g transform="translate(48.22,54.4)" id="img-fd6a30cf-47" fill="#C3C9B7">
            <path d="M-9.4,-2.95 L 9.4 -2.95 9.4 2.95 -9.4 2.95 z" class="primitive"/>
          </g>
          <g transform="translate(66.97,54.4)" id="img-fd6a30cf-48" fill="#BFCAB8">
            <path d="M-9.4,-2.95 L 9.4 -2.95 9.4 2.95 -9.4 2.95 z" class="primitive"/>
          </g>
          <g transform="translate(29.47,48.56)" id="img-fd6a30cf-49" fill="#A76157">
            <path d="M-9.4,-2.95 L 9.4 -2.95 9.4 2.95 -9.4 2.95 z" class="primitive"/>
          </g>
          <g transform="translate(48.22,48.56)" id="img-fd6a30cf-50" fill="#75B9BE">
            <path d="M-9.4,-2.95 L 9.4 -2.95 9.4 2.95 -9.4 2.95 z" class="primitive"/>
          </g>
          <g transform="translate(29.47,42.72)" id="img-fd6a30cf-51" fill="#D6C4A8">
            <path d="M-9.4,-2.95 L 9.4 -2.95 9.4 2.95 -9.4 2.95 z" class="primitive"/>
          </g>
          <g transform="translate(48.22,42.72)" id="img-fd6a30cf-52" fill="#C2C9B7">
            <path d="M-9.4,-2.95 L 9.4 -2.95 9.4 2.95 -9.4 2.95 z" class="primitive"/>
          </g>
          <g transform="translate(29.47,36.88)" id="img-fd6a30cf-53" fill="#C8C8B5">
            <path d="M-9.4,-2.95 L 9.4 -2.95 9.4 2.95 -9.4 2.95 z" class="primitive"/>
          </g>
          <g transform="translate(29.47,31.03)" id="img-fd6a30cf-54" fill="#D6C4A8">
            <path d="M-9.4,-2.95 L 9.4 -2.95 9.4 2.95 -9.4 2.95 z" class="primitive"/>
          </g>
          <g transform="translate(48.22,31.03)" id="img-fd6a30cf-55" fill="#C4C9B6">
            <path d="M-9.4,-2.95 L 9.4 -2.95 9.4 2.95 -9.4 2.95 z" class="primitive"/>
          </g>
          <g transform="translate(66.97,31.03)" id="img-fd6a30cf-56" fill="#D2C5AB">
            <path d="M-9.4,-2.95 L 9.4 -2.95 9.4 2.95 -9.4 2.95 z" class="primitive"/>
          </g>
          <g transform="translate(85.72,31.03)" id="img-fd6a30cf-57" fill="#C3C9B7">
            <path d="M-9.4,-2.95 L 9.4 -2.95 9.4 2.95 -9.4 2.95 z" class="primitive"/>
          </g>
          <g transform="translate(29.47,25.19)" id="img-fd6a30cf-58" fill="#BECAB9">
            <path d="M-9.4,-2.95 L 9.4 -2.95 9.4 2.95 -9.4 2.95 z" class="primitive"/>
          </g>
          <g transform="translate(48.22,25.19)" id="img-fd6a30cf-59" fill="#A0D0CA">
            <path d="M-9.4,-2.95 L 9.4 -2.95 9.4 2.95 -9.4 2.95 z" class="primitive"/>
          </g>
          <g transform="translate(66.97,25.19)" id="img-fd6a30cf-60" fill="#BCCABB">
            <path d="M-9.4,-2.95 L 9.4 -2.95 9.4 2.95 -9.4 2.95 z" class="primitive"/>
          </g>
          <g transform="translate(85.72,25.19)" id="img-fd6a30cf-61" fill="#BACBBC">
            <path d="M-9.4,-2.95 L 9.4 -2.95 9.4 2.95 -9.4 2.95 z" class="primitive"/>
          </g>
          <g transform="translate(29.47,19.35)" id="img-fd6a30cf-62" fill="#B8CBBE">
            <path d="M-9.4,-2.95 L 9.4 -2.95 9.4 2.95 -9.4 2.95 z" class="primitive"/>
          </g>
          <g transform="translate(29.47,13.51)" id="img-fd6a30cf-63" fill="#C8A083">
            <path d="M-9.4,-2.95 L 9.4 -2.95 9.4 2.95 -9.4 2.95 z" class="primitive"/>
          </g>
        </g>
      </g>
    </g>
  </g>
  <g class="guide ylabels" font-size="2.82" font-family="'PT Sans Caption','Helvetica Neue','Helvetica',sans-serif" fill="#6C606B" id="img-fd6a30cf-64">
    <g transform="translate(19.06,77.79)" id="img-fd6a30cf-65">
      <g class="primitive">
        <text text-anchor="end" dy="0.35em">Q2</text>
      </g>
    </g>
    <g transform="translate(19.06,71.95)" id="img-fd6a30cf-66">
      <g class="primitive">
        <text text-anchor="end" dy="0.35em">Q3</text>
      </g>
    </g>
    <g transform="translate(19.06,66.11)" id="img-fd6a30cf-67">
      <g class="primitive">
        <text text-anchor="end" dy="0.35em">Q4</text>
      </g>
    </g>
    <g transform="translate(19.06,60.27)" id="img-fd6a30cf-68">
      <g class="primitive">
        <text text-anchor="end" dy="0.35em">Q5</text>
      </g>
    </g>
    <g transform="translate(19.06,54.43)" id="img-fd6a30cf-69">
      <g class="primitive">
        <text text-anchor="end" dy="0.35em">Q6</text>
      </g>
    </g>
    <g transform="translate(19.06,48.58)" id="img-fd6a30cf-70">
      <g class="primitive">
        <text text-anchor="end" dy="0.35em">Q7</text>
      </g>
    </g>
    <g transform="translate(19.06,42.74)" id="img-fd6a30cf-71">
      <g class="primitive">
        <text text-anchor="end" dy="0.35em">Q8</text>
      </g>
    </g>
    <g transform="translate(19.06,36.9)" id="img-fd6a30cf-72">
      <g class="primitive">
        <text text-anchor="end" dy="0.35em">Q9</text>
      </g>
    </g>
    <g transform="translate(19.06,31.06)" id="img-fd6a30cf-73">
      <g class="primitive">
        <text text-anchor="end" dy="0.35em">Q10</text>
      </g>
    </g>
    <g transform="translate(19.06,25.22)" id="img-fd6a30cf-74">
      <g class="primitive">
        <text text-anchor="end" dy="0.35em">Q11</text>
      </g>
    </g>
    <g transform="translate(19.06,19.37)" id="img-fd6a30cf-75">
      <g class="primitive">
        <text text-anchor="end" dy="0.35em">Q12</text>
      </g>
    </g>
    <g transform="translate(19.06,13.53)" id="img-fd6a30cf-76">
      <g class="primitive">
        <text text-anchor="end" dy="0.35em">Q13</text>
      </g>
    </g>
  </g>
  <g font-size="3.88" font-family="'PT Sans','Helvetica Neue','Helvetica',sans-serif" fill="#564A55" stroke="#000000" stroke-opacity="0.000" id="img-fd6a30cf-77">
    <g transform="translate(8.81,43.66)" id="img-fd6a30cf-78">
      <g class="primitive">
        <text text-anchor="middle" dy="0.35em" transform="rotate(-90,0, 2)">Graph</text>
      </g>
    </g>
  </g>
  <g font-size="3.88" font-family="'PT Sans','Helvetica Neue','Helvetica',sans-serif" fill="#564A55" stroke="#000000" stroke-opacity="0.000" id="img-fd6a30cf-79">
    <g transform="translate(66.95,5)" id="img-fd6a30cf-80">
      <g class="primitive">
        <text text-anchor="middle" dy="0.6em">Heatmap of number of responses identifying points as tipping points</text>
      </g>
    </g>
  </g>
</g>
<defs>
  <clipPath id="img-fd6a30cf-9">
    <path d="M20.06,10.61 L 113.83 10.61 113.83 80.72 20.06 80.72" />
  </clipPath>
</defs>
</svg>
